<svg width="1925" height="283" fill="none" xmlns="http://www.w3.org/2000/svg"><g clip-path="url(#clip0)"><path fill-rule="evenodd" clip-rule="evenodd" d="M617.7 204.8c.8-.5 1.6-.9 2.5-1.1 1.2-.4 2.5-.4 3.8-.4h.4c1 0 1.9 0 2.6-.3.7-.3 1.3-.8 1.9-1.4a17.3 17.3 0 011.5-1.3c.7-.6 1.5-1.2 1.7-2V196c-.2-1.4.1-2.6.5-4.1.2-1 .5-2 0-2.6-.3-.6-1.2-.8-2.2-1h-.6c-1.4-.4-2.5-.9-3.6-1.4l-2-.8c-1.6-.6-3.6-1-5.1-.2-.5.3-1 .6-1.3 1.1-.6.9-.6 2-.7 3.1v.5c-.3 2.8-1 5.3-1.7 8l-.2.4-2 7.4v.4a44 44 0 003.7-1.6l.8-.4zm673.8-65l.5.4c4.4 2.7 10 3.2 15 2.6 1.5-.1 2.5.3 3.3 1 274.4-19.2 505.4-25.6 614.7-6.4V283H0c335-46 378.9-49.5 603.3-74l.6-5.9.4-2.5a43 43 0 00.6-11c-.1-1-.2-2-.1-2.8v-1.4l-.2-.4c0-.2-.2-.4-.1-.6 0-.3.4-.4.8-.6l.6-.3c.7-.5.6-1.4.5-2.3l-.1-1c-.2-1.6-.4-3-.2-4.4.2-1.6.8-3.1 1.3-4.7l1.1-3.3a31.7 31.7 0 00.9-6.6c.2-2 .6-4 1-6l-15 8.9c-8.7 5-17.4 9.8-26.2 14.7h-.2a543 543 0 0121.8-19.3c7-5.7 14.1-11 21.3-16.4a7.4 7.4 0 01-1.3-2.5c-.3-1.3.4-2.7 1-4 .6-1 1-2 1.2-3 .4-2.2-.7-4.3-1.9-6.3l-.9-1.5c-1-1.5-2-3-2.5-4.7-1.3-4 0-7.8 1.5-11.6l.8-1.7c1.2-3 2.4-5.7 2.7-8.8a36.4 36.4 0 00-2.5-16.5v-.2c-.5-1.3-1-2.7-.4-2.7l1 .4c.5.3 1 .7 1.3.5.3 0 .2-.9.1-1.7v-.2c-.2-1.5-.4-3 .2-3 .3 0 .7.1 1.2.4.6.3 1.3.6 1.8.5.3-.2.5-.5.7-.9l.5-.8c.5-.4 1-.4 1.7-.4l1.2-.1c1-.5 1.3-2.1 1-3.4 0-.6-.1-1-.3-1.4-.2-.9-.5-1.6-.2-2.5.1-.5.5-1.1.8-1.3 1-.6 1.8 1.8 2.2 3.8.6 3 0 5-.7 6.9l-.3.9a14 14 0 00-.6 4.8c0 .7.1 1.4.3 1.6.1.1.4-.4.8-1.1l.8-1.4c.8-1 1.7-1.5 2.6-2 .6-.3 1.1-.6 1.5-1 .7-1 .9-2.4 1-3.8l.1-.5a21 21 0 014.5-11.1c1.3-1.6 3-3.2 4.7-3.5 3.2-.5 6.4 3.4 8.3 7 1.6 2.8 2.3 5.4 2.7 8.3.3 1.7.4 3.6.5 5.2 0 .9.1 1.6.4 2.7.2.5.3 1 .1 1h-.5a2 2 0 00-.7 0 1 1 0 00-.7.6c-.3.7.4 1.4 1 2.1l.5.5c1 1.1 1.3 2.1 1.2 4 0 .9 0 1.8-.3 1.8-.2 0-.3-.1-.5-.3-.2-.2-.5-.5-.8-.6-.6-.3-1.3.3-1.7 1-.4.6-.4 1.4-.3 2.1.3 2.4 1 4.6 1.8 6.8a97 97 0 012 6.2 34 34 0 006.5 14.5c2.5 3.4 5.7 6.2 9.2 8.9 3.3 2.5 6.8 4.9 10.8 6.2 1.6.5 3.4.9 5.1 1.2 4.2.9 8.4 1.8 11.3 5 .9.9 1.5 2 2.2 3l.3.7c.9 1.4 1.9 3 3.1 3.5 1 .5 2.4 0 4-.4l1.2-.4c1.9-.5 4.2-.9 4.5-.5.2.3-.6 1-1.7 2l-2.3 2-1.6 2.2c-.7 1-1.3 2-2.1 2.3-1.3.6-3 .3-4.7-1l-.7-.5c-.6-.5-1.1-1-1.5-.8-.2.1-.3.5-.5 1l-.3.9c-.7 1.5-2.6 1.8-4.2 1.5-.7 0-1.3-.3-2-.5-.6-.3-1.3-.5-2-.6-1 0-2 0-2.8.5-.7.5-1.3 1.3-1.6 2.2l-.4.9c-.3.8-.6 1.7-1.3 2.3-1 .9-2.2.4-3.3-.2l-2.9-1.8-2.5-2.1-1.3-1.2c-2.9-2.5-7.5-6.1-7.8-5.1-.2.6 1.2 3 3.5 4.5.6.4 1.2.8 1.8 1 1.2.7 2.2 1.2 1.8 1.9l-1.1 1a304.7 304.7 0 01-3.1 2l-3 2.6-.3.3-.2.2c-1.4 1.3-2.8 2.5-4 4-1.4 2-2.3 4.3-2.9 6.6l-.3 1.2c-.2 1-.4 2.1-.8 3-.3.8-.9 1.8-1.6 2.2-.6.3-1.4 0-2.1-.2l-.3-.1a4 4 0 00-1.6-.4c-.5 0-1.1.3-1.5.7-.3.5-.4 1.1-.4 1.8v.4a9.6 9.6 0 01-1.5 4.1l-.2.5a8.8 8.8 0 00-1.5 3.4v2.4l-.4 1c-.2.6-.4 1.2-.2 1.4a122.3 122.3 0 0013-3c2-.6 4-1.1 6-1.4l1-.2c1-.1 2.1-.2 3-.6 2.2-.8 3.7-2.8 5.2-4.7 0-.2.2-.3.3-.5 1.5-2 2.9-3.8 4.7-5.2 1.8-1.4 4-2.3 6.2-2.6 1.4-.2 2.8-.2 4.3 0h3.5c2.8-.3 5.5-1.4 8-2.6l.8-.4c2-1 3.8-1.8 5.9-2.1l2.4-.2c1.8 0 3.6 0 5-1 .6-.4 1.1-1 1.6-1.6.7-.7 1.4-1.5 2.2-1.7 1.2-.4 2.7.3 4.2 1.1l1 .5c1.9.9 3.6 1.4 5.6 1 .5 0 1-.2 1.4-.5 1-.7.8-2.3.8-3.7l-.1-1c-.1-2.5-.3-4.6.1-7 .3-2 1-4 2.6-5l.6-.4a4 4 0 001-.6c.6-.5.8-1.3 1-2.1v-.1a29.6 29.6 0 011.8-5.4c.2-.6.5-1.1.5-1.7 0-.8-.4-1.7-.8-2.4l-.2-.4c-.3-.6-.7-1.1-1-2l-.5-2.8c-.2-1.1-.4-2-.5-1.7l-.3 1.4-.2.8c-.2 1.2-.5 2-.8 2.8v.3l-.2.5a25 25 0 01-1.6 4.1 7 7 0 00-.8 1.8v2.7c0 .8 0 1.6-.4 2.2-.4.6-1.2 1-2 1.3a6 6 0 00-2 1c-.6.6-1 1.4-1.1 2.3l-.2 1c0 .6 0 1-.2 1.6-.4 1.5-1.6 3.1-3.2 3.3-.7.1-1.5-.1-2.2-.4l-1.2-.8-.7-.8h1.2c1 0 1.5-.7 1.8-1.6.4-1 .4-1.9.4-2.8a33.3 33.3 0 00-1-8.4l-.1-.6-.4-1.6c-.3-2.2-.3-4.5.5-6.5a9.7 9.7 0 011.4-2.3l.9-1.2c.4-.8.5-1.8.6-2.7l.3-1.5a15 15 0 011.6-3.5l.2-.5 2.2-4.4c1.6-3.3 3.2-6.6 5.6-9.5a39 39 0 015.3-5.2c2.2-1.8 4.4-3.5 6.7-5.1 1.1-.7 2.2-1.4 3.4-1.9a4 4 0 011-.2h.5c.5 0 1 0 1.3-.2.3-.3.2-.8.2-1.2v-.7c0-.4 0-.8.2-1.2l.1-.5.1-.5.3-1c.5-.7 1.4-1 2.4-1.2h.4c1.6-.5 2.9-1 4.2-1.6a54 54 0 0110.5-3.2c1.5-.2 3-.4 4.3.1l1.2.6c.6.4 1.2.8 1.9.9.6 0 1-.1 1.4-.6l.7-1 .4-.7c.3-.5.8-1 1.3-1.3.7-.3 1.6-.3 2.4-.3h1.1l.8-.1c1.3-.2 2.5-.3 3.3 1l.3.5c.2.3.3.6.6.8.4.3 1 .5 1.4.3l.8-.7v-.2c.8-1 1.7-1.5 2.5-2.1l.5-.3 2.7-2c1-.8 2-1.6 3.2-2.3 2.2-1.4 4.6-2.4 7.1-3.5l2-.8.8-.3c1.9-.8 3.8-1.7 5.7-2 1-.2 2-.3 3.2-.3h.3c1.2-.1 2.5-.2 3.6-.6a57.3 57.3 0 012-1c1.2-.5 1-.3.7.3l-.2.6c-.2.5-.2.9-.1 1.3v.9l.1.8h.7c.6-.2 1.3-.3 1.8.2.3.2.5.5.5.7 0 .3-.2.5-.4.8-.3.4-.7.8-.5 1.6.3.6 1 1 1.8 1.2l.8.3c.6.3 1 .6 1.2 1 0 .5-.3 1-.8 1.3l-.8.3c-.3 0-.6 0-.8.3-.3.3-.3 1-.3 1.6 0 .9.2 1.7.3 2.4l.2.9.3 2.3v.2c.1 1.1.2 2.2 0 3.2l-.2 1-.3 1.5c0 .9.2 1.8.5 2.6l.6 1.6c.5 1 .9 2.2 1.2 3.3.2.9.3 1.8.2 2.8l-.2 1.6v.3l-.4 1.3-.2.5c.1.2.4.3.6.3.3 0 .4-.3.6-.5l.1-.2 1-1 .3-.2c.7-.6 1.6-1.6 2-2.5.2-.6.3-1.3.3-2v-.7c.2-1.6.7-3.1 1.3-4.6a9.4 9.4 0 012.3-3.9c1-.8 2.3-1.3 3.5-1.4 1 0 1.8.2 2.8.5h.2c.6.2.9.2 1.3-.3.6-.8 1-1.6 1.4-2.4a42 42 0 012-3.4 6 6 0 011.6-1.8c1-.6 2.3-.5 3.6-.4 3 .2 4.3.7 5.2 3.7l.6 2.7.3 1.6v.3c.3.8.4 1.6.3 2.2-.2.7-.7 1.3-1.2 1.9l-.8 1.1-.6 1.4-.4 1-1.4 2-.6.7c-.4.5-.8 1-.8 1.6 0 .6.2 1.1.5 1.7l.2.6c.7 1.5.7 3.1.6 4.7v.1l-.1 7.8v.2a44.8 44.8 0 01-.4 6.2c-.3 1.3-.5 2.7-.3 4 .2 1 .5 1.8.9 2.7l1 2.5 1.7 3.8a43 43 0 011.9 7.5l.6 3v.1c.2 1 .5 2 0 2.4-.4.2-1.2 0-1.8-.5a4 4 0 01-.8-1.2c-.2-.4-.4-.7-.7-.9-.5-.2-1.4.5-2.3 1.2l-.7.5a14.9 14.9 0 01-1.7 1.2l-.4.3c-.4.3-.8.6-1.4.8l-.8.1c-.4 0-.8 0-1.1.3-.5.3-.7 1-.8 1.5-.3 1.4-.4 1.6-.7 2.1l-.4 1.2c-1.2 2.8 11-.2 16.4-1.5l2.5-.6c1.9-.3 3.4-.2 4.7-.1 2.9.2 4.4.3 5.4-4l.6-1.8c0-.3.2-.5.3-.7.2-.7.4-1.4.2-2-.2-.4-.4-.8-.7-.9-.6-.3-1.3.2-2 .7h-.2l-.5.4c-.6.4-1.2.8-1.7 1.4l-.4.6c-.2.5-.5 1-1 1.3-.5.4-1.4.5-2 .1l-.4-.7-.4-.5-.8-.7-.6-.4c-.4-.4-.6-.9-.7-1.4l-.2-.4v-.2c-.2-.4-.4-.7-.3-1 .1-.4.7-.5 1.3-.7l.7-.2c1.3-.5 1.9-1.6 2.5-2.7l4.3-7.8.8-1.4 2.8-5c1.2-2.1 2-4 2.8-7.3.2-1 .4-2.2.2-2.4-.3-.2-1.2.8-2 1.8l-.3.3-2.8 3-.4.3a61.3 61.3 0 00-4.5 4.8l-1.7 1.8c-.7.7-1.6 1.3-2 1.3-.6 0 0-1.7.6-3.3l.3-.8c.5-1.3.8-2.4 1-3.4l1-2.7c1.1-2.8 3.4-5.7 5.8-8.3l2.5-2.5c1.4-1.3 2.7-2.6 3.8-4l1.3-1.5 2.1-2.7.3-.2c.6-.7 1.2-1.3 1.3-2 .2-1-.7-2.1-1.6-3.2l-1-1.2a8.8 8.8 0 01-1.5-4.3l-.1-1.2c0-.6 0-1.1-.2-1.7v-.6c-.2-.5-.3-1-.2-1.5 0-.5.4-1 .7-1.5l.3-.5.2-.3c.2-.4.5-.9.7-1 .4 0 .7 1 1 2 .2.9.3 1.6.8 1.7.4.1 1-.1 1.5-.5l.8-.8.6-.7.8-.5.9-.7.6-1c.2-.8.2-2-.4-2.4-.4-.2-.8-.2-1.3-.3h-.2c-.6 0-1.2-.2-1.7-.4a21.5 21.5 0 00-1.3-.2c-.5-.1-1-.2-1.2-.5-.2-.3-.1-.8 0-1.2V82a4.6 4.6 0 01.1-1.4c.1-.2.2-.4.1-.6 0-.3-.2-.6-.5-.8-1-.6-1.2-.1-1.7.7a26.3 26.3 0 01-4.4 5.3c-.3 0-.4-.6-.4-1-.2-1.3 0-2.1.2-3l1.7-6.5a50 50 0 013.3-9.3v-.2c.4-.5.7-1 .8-1.7v-1.2c.1-.5.2-1 0-1.6l-.2-1.1-.3-1.1c-.2-1.2.3-2.5.8-3.8.4-1 .8-2 1.5-2.8.7-.7 1.7-1.1 2.6-1.6l1.2-.5 2-1.4c1.4-1.4 2.1-3.4 2.9-5.5l.6-1.7c1-2.2 2.1-4.4 3.6-5.9l1.6-1.3 1.2-1.1h.1c.5-.5 1-.9 1.4-.7.2 0 .5.3.6.5.2.5 0 1 0 1.6-.3 1-.4 2-.5 3 0 .6 0 1.2.3 1.8.2.4.5.8 1 1 .7.2 1.5-.2 2.2-.6l.2-.2.3-.1c.5-.3 1-.5 1.3-.9 1.2-1 1.7-2.5 2.3-4l.5-1.4c.6-1.5 1.5-3 2.8-3.9a7 7 0 016-.8c1.2.3 2.4 1 3.1 2 .8 1 1.1 2.2 1.5 3.4v.3l.1.2c.3.7.5 1.4.6 2.2l-.3 2.5-.1.7-.1.6-.4 2-.6 1.5c-.3.5-.6 1-.7 1.6-.3.9-.3 1.7-.3 2.6 0 1 0 1.8-.4 2.7-.4 1.3-1 2-2.4 2.2h-.2c-.4 0-.7.1-.8.3-.1.2.2.7.6 1l.6.4c.3.1.5.2.6.4.3.4.2 1 0 1.8v.3c-.3 1.6-.4 3 .1 4.4l1.1 2.3.8 1.5c.7 1.4 1 3 1.4 4.5l.3 1 .4 1.4c.6 2.3 1.2 4.7.9 7-.2 1-.6 2.1-1.3 3a4.4 4.4 0 01-3.3 1.4c-.5 0-1.1 0-1.7.4-.4.2-.8.5-1 .9 0 .4.3.8.7 1.2l.7 1a2 2 0 01-.2 1.8c-.3.5-.8.9-1.3 1.3-.4.3-.8.6-1 1-.4.5-.6 1.2-.7 1.8-.3 2.3.2 4.5 1 6.6a79 79 0 002.1 5.6c.8 2 1.7 3.9 2.3 5.8l1.2 4.5a72 72 0 002 6.8c.7 1.8 1.3 3.6 1.6 5.4a14 14 0 010 4.2c-.3 1.8-1 3.5-1.6 5.2l-.1.1a44.3 44.3 0 00-3.3 12.8 22.1 22.1 0 01-.6 4.8c-.2 1-.5 2.2.1 2.7.3.2.8.3 1.3.4 2 .6 3.9 1.2 5.8 2.3h.2c.5.4 1 .6 1.6.3.8-.5 1.5-.9 2.2-.7.4 0 .8.3 1.2.6.5.3 1 .6 1.5.6.6 0 1.2-.2 1.8-.6l3.1-1.5h.1l1.9-1c.7-.5 1.3-1.2 1.6-2 .3-.8.3-1.5.3-2.3a47.5 47.5 0 01.9-6.1c0-.8.2-1.5.4-2.2.5-3.4.8-7 1-10.3l.2-2 .2-2.1.3-4.6c0-.5.1-1-.1-1.4-.2-.2-.5-.4-.9-.5l-.5-.3c-.7-.4-1-1-1.3-1.8-.2-.6-.3-1.3-.1-1.9 0-.2 0-.3.2-.5l.2-.6c.2-.6 0-1.3-.4-1.9l-.3-.4-.5-1.2c0-.4.2-.9.4-1.3v-.2l.5-1.4.8-2.1 1.2-1.8 1.2-2 .4-.8c.3-.7.5-1.4 1-1.8l1.1-.8c.4-.2.7-.3.8-.6l-.3-.5-.3-.4c-.3-.5-.2-1-.1-1.5v-2.3c.1-.6.3-1.2.8-1.5.4-.2.9-.2 1.4-.1h1.1a26.1 26.1 0 011 .2l1.8-.1c.4-.2.8-.5 1-.9.4-.6.4-1.5.4-2.3v-.7c0-2.6 1.2-4.5 2.6-6.7.6-1 1.2-1.9 2-2.5.6-.5 1.3-.8 2-1.1l.3-.2h.2c.5-.3 1-.5 1.6-.6 1 0 2 .5 3 1.2 1.2 1 2.2 2 3 3.3.4.8.7 1.8 1 2.8.2.5.4 1 .4 1.5s-.4 1-.6 1.5l-.2.3c-.6 1-.9 2.1-1.2 3.2l-.2.6-.5 1.2-.8 2.6c0 .4-.2.8-.5 1.1l-.3.3-.3.4c-.3.5 0 1.1.3 1.7v.1c1 2.2 1.5 4 2 6l.4 2.4a60 60 0 001.2 5c.4 1.7 1 3.4 2.2 4.4 1 .9 2.3 1.4 3.6 1.8l.5.2c1.7.6 3.3 1.2 4.9 2a9 9 0 013.5 2.3c1 1.4 1 2.6 0 4a7.5 7.5 0 01-3.8 3 7.7 7.7 0 01-3.5.4c-.6 0-1.3 0-1.8.2-.5.3-.8.8-1.2 1.3 0 .2-.2.3-.3.4-.9 1.2-1.9 2-3.3 2.9-.7.5-1.6 1-1.6 1.8l.3 1 .2.5c.2.4.2.8.2 1.3l.1.8c.1.6.7 2 1.1 2.3.4.4 1 .4 1.8.4a24.5 24.5 0 018.6.8c2 .5 3.8 1.1 5.4.2l.2-.2c.5-.4.4-1.2.2-1.8-.4-1-1.2-1.5-2-2.1l-1-.9-.8-.7c-.4-.5-.8-1-1.3-1.3-.4-.2-.9-.3-1.3-.3l-.9.2-.9.2c-.8.1-1.7-.4-2.1-1-.4-.8-.3-1.8.2-2.6a3 3 0 012-1.4c.6-.1 1.2 0 1.9.2l1.4.2c1.5.1 3-.8 4.1-1.9 2.8-2.4 4.3-5.9 5.8-9.2l1.1-2.7.3-.5c.6-1.2 1.1-2.4 1.4-3.7.2-1.1.2-2.3-.3-3.2-.3-.5-.8-.8-1.3-1.2l-1.4-1.3c-.6-.8-.7-2-.3-3 .1-.5.3-.9.6-1.3l.6-1.4a6 6 0 000-1.7V105c.1-1.6 1-3.1 2.1-4.5 1-1.2 2-2.2 3.2-2.9l1.4-.6c1-.3 1.8-.7 2.5-1.3.3-.2.5-.5.6-.8v-.8c.2-.4.4-.8.7-1 .4-.4.9-.7 1.4-.9.3-.2.7-.3 1-.6.9-.6 1.4-1.7 1.8-2.8l.4-1.5c.2-.9.4-1.7.8-2.5 1.1-2.3 3.8-4.5 6.4-4.7a6 6 0 014.2 1.5c.6.5 1 1.2 1.5 2 .3.4.5.9 1 1.4l.3.4c.7 1 1 1.3.5 2.8l-.5 1.3-.5 1.1-.7 2.5-.1.8-.3 1-.5 2.3v.2c-.1.5-.2 1-.5 1.4l-.9.6c-.4.2-.8.4-1 .7-.3.6 0 1.3.2 2l.1.6c.5 1.3.4 2.6.4 3.9v1.9l.4 2 .2 1.5c0 .5.1 1 .4 1.3l.5.3.4.2c.8.6.7 1.7.6 2.8v.6c0 1.7.3 3 .5 4.4l.4 1.6.4 3.6v.7a58.3 58.3 0 001.8 11.8v.4c0 .6 0 1.2.3 1.8.3.8.8 1.4 1.4 2 1 .7 2.2 1.2 3.3 1.7 1.6.5 3.2 1 4.8 1.2 2 .4 4.2.4 6.6 0 .7-.1 1.5-.3 2-.8.6-.6.6-1.9.2-3l-.5-1-.5-1c-.4-1.3.3-2.8 1-4.3 1-2.2 2-4.3 2.3-6.1l.2-1.9.5-3.1.1-.6c.3-1 .5-2 .2-2a141 141 0 00-4.8 4.4 12.6 12.6 0 00-3 4.4l-.4 1.1c-.4 1.3-.8 2.5-1.7 2.7-1 .3-2.5-.4-3-1.3-.4-.6-.5-1.2-.6-1.8 0-.5 0-1-.2-1.6l-.3-.5-.3-1.1c0-.5.7-.9 1.3-1.3l.2-.1c1.8-1.2 3-2.5 4.2-3.8l.4-.5 4-4.2c1.3-1.3 2.5-2.6 3.5-4l.8-1.4c.6-1.5.6-3.4-.2-4.7a6.3 6.3 0 00-2-1.6l-1-.6a10 10 0 01-3.3-4.2 4 4 0 00-1-1.5l-.2-.2c-.2 0-.3-.2-.4-.3-.3-.3-.4-.8-.3-1.2.3-.7 1.2-.8 2.2-.8h.1l4.4-.7 1.5-.3a6 6 0 002.1-.6c1.4-.8 1.5-2.9 1.6-4.8v-.4A50.8 50.8 0 011057 74c.9-1.8 1.9-3.6 3.4-4.8l1.4-1c1-.7 1.8-1.4 2.5-2.4.8-1 1-2.5 1.3-3.8v-.4c.5-2.2 1-4.2 1.8-6.3.9-2.2 2-4.5 3.9-5.7a8 8 0 016.3-.9c2.7.8 5 2.8 5.9 5.4a14.3 14.3 0 01.4 5.8v3.7c0 .6 0 1.4-.3 1.6l-.7.2-.7.1c-.4.3-.5.8-.5 1.4 0 .8.3 1.4.5 2l.2.6.5 1.5a13.3 13.3 0 002 4.6l.3.3 1 1.8c.4.9.5 2 .1 2.8-.3.6-.9 1-1.6 1.4l-.3.1c-.5.3-1 .5-1.2.8-.3.5 0 1.1.5 1.9.3.4.5 1 .6 1.4.2.7 0 1.3-.1 2l-.1.3a20 20 0 00-.4 2.2c0 .8-.1 1.5-.3 2.3l-.3 1.2c-.3 1.2-.7 2.3-.5 3.4.2 1 .8 2 1.3 3 .6.8 1 1.6 1.3 2.4l.1 1.3c0 .7.1 1.4.4 2.2.2.5.5 1 .8 1 .3.1.6-.5.8-1.1v-.2c.3-.4.4-.8.7-1 .7-.4 2.2.4 2.5 1.3l.2.8v.7c.2.5.8 1 1.3 1.4l.3.2 1.1 1 2 1.4c.9.4 2 .6 2.9.7a7.9 7.9 0 004-.4c1-.3 2-.5 2.2-.2.2.4-.3 1.3-.8 2.3l-1.1 2.1c-1.5 2.9-2.5 5-4.4 6.9a55.6 55.6 0 01-10.6 7c-.7.4-1.4.7-1.7.5-.2-.2-.1-.8 0-1.4 0-1.1.2-2.1-.6-2.7-.5-.4-1.4-.7-1.8-.4-.3.3-.3 1-.3 1.6.1 1.7.4 3 .7 4.3l.4 1.4c.3 1.8.6 3.8.7 5.7v.4c0 1.4.2 3.8 1 4.7.8.6 2 .4 3.3 0 2.9-.4 5.7-1 8.4-1h2.2c1.2.1 2.5.2 4 0 1.6 0 3.4-.4 4-1.6l.4-1.6v-.2c.2-1.5.6-3 .9-4.4l.6-2.9.5-2.8c.3-2.1.6-4.2 1.3-6.3l.7-1.5.8-2.4c.2-.6.3-1.2.3-1.9a21.5 21.5 0 01.4-2.4c.2-.7.3-1.4 0-1.6-.3-.2-1 .2-1.7.6-1 .7-1.5 1.5-2 2.3-.4 1-.8 2-.9 3.4v.8c0 1 0 2.2-.7 2.3-.3 0-.6 0-1-.3-.6-.4-.5-1.3-.5-2.2v-.2l.1-1.3c0-1.2 0-2.3.4-3.3.5-1.4 1.5-2.7 2.6-3.8l1.8-1.5c1.4-1.3 2.9-2.5 3.7-4.2a37.2 37.2 0 002.3-10.5c0-.9 0-1.8.2-2.6.2-1.8.8-3.5 1.3-5.2v-.2c.5-1.5 1-3 1-4.4.1-2.2-.6-4.3-1.3-6.5l-.4-1c-1-3.4-1.9-6.8-1.9-10.2 0-4.4 1.3-8.8 2.7-13l.2-.9c.8-2.3 1.5-4.6 2-7 .4-1.4.6-2.8.3-4.2a9.1 9.1 0 00-1.5-3.5l-1-1.3c-.9-1.2-1.8-2.4-2.1-4.4-.1-.6-.2-1.3 0-1.5.3-.6 1.7 1.2 2.6 2.5l.2.3c.6.9 1 1.4 2 1.8.4.2 1 .3 1.2.2.1-.2-.1-.7-.4-1.1v-.2c-1-1.8-1.2-3.2-1.5-4.6l-.2-1c-.2-1.2-.6-2.4-.9-3.5l-.3-1.2-.3-1c-.3-1.2-.6-2.4-1.2-4V18l-.3-.7.5.5c.4.5.9 1.2 1.2 1.2.4.1.5-.9.6-1.7l.1-.8c.3-1 1.2 1.7 1.8 3.8l.2.5a37 37 0 002.1 5.6v.2c.6 1.2 1.4 2.9 1.7 2.9.3 0 .3-1.4.3-3-.1-2.6-.2-5.7.5-4.9l.5 1c.3.7.6 1.4 1 1.5.3 0 .5-1 .8-2.1.2-.8.3-1.5.5-1.7.5-.6 1.2 1.9 1.2 4v.8c0 .8-.1 1.4.3 1.6.4 0 1.2-.2 1.6-.6.4-.5.5-1 .5-1.7a6 6 0 01.2-1c.2-.8.3-1.5 0-2.3l-.6-1-.3-.6s.3 0 .5.2c.5.3 1.1.7 1.6.6.4 0 .6-.5.8-1 1-1.6 1.8-3 3.2-3.8 1.1-.6 2.7-.8 4-.5 2.2.3 4.1 1.7 5.2 3.5.9 1.6 1.2 3.5 1.1 5.3 0 1.3-.3 2.6-.5 3.8v.1a15.7 15.7 0 01-2.3 6.2c-.7 1-1.4 2-1.4 3 0 .6 0 1.1.2 1.6.3.6.9 1.1 1.4 1.6.6.6 1.2 1.1 1.5 1.9.5.9.7 2 0 2.6l-.8.3-.8.4c-.4.4-.3 1.2-.2 2 .5 4 .3 7 .1 10v1.3a76.1 76.1 0 00.6 15.9l16-17 .2-.4v-.3c.6-1.7 1.7-3.3 2.8-4.7 1.8-2.2 3.7-4 6.4-5.9.6-.4 1.3-.9 1.9-.7.4.2.8.6 1 1 .3 1.1-.8 2-1.8 2.7l-1 .8c-1.5 1.4-2 3-2.6 4.5l-.4 1c-.4 1-.8 2-1.3 2.8l-1.5 3.5c-.5 1.5-.9 3.2-1.2 4.8 0 .5-.2.9-.3 1.3-1 5.1-2.7 10-5.7 14.4-1.4 2-3 3.8-4.8 5.7l-.3.3a13.9 13.9 0 00-2.8 4l-.4 1.2c-.4 1-.7 2.2-1.7 2.9l-.4.2-.6.5c-.4.5 0 1.5.5 2.3l.2.3c1.2 2.2 1.6 4 2 6v.2c.4 1.3.7 2.7.7 4-.1 1.8-.7 3.5-1.4 5.1l-.4 1.3a53 53 0 00-2.6 11.6c-.3 1.7-.5 3.4-1 5.3-.3 1.5-.2 1.8 1.2 2.4 1.8 1 3.6 1.8 5.4 1.2.3 0 .6-.2 1-.4s.9-.4 1.3-.4c.8-.1 1.5.3 2.3.8.7.4 1.5.9 2.4 1 1 .3 2.3 0 2.6-.6.3-.5-.2-1.4-.6-2.2l-.1-.2-1.3-3a61 61 0 00-2-4.2c-.7-1.1-1.5-2.3-2.5-2.3l-1.2.2c-.5.2-1 .4-1.5.2a2 2 0 01-1.2-1c-.6-1.2 1.5-2.4 3.2-3.2a11.6 11.6 0 017-1.2c1 .1 2 .2 2.9 0a5 5 0 002.5-2 8.4 8.4 0 001.6-5c0-1-.1-1.8-.3-2.7l-.3-2.4a7.5 7.5 0 012-5.5c.3-.4.7-.9.8-1.3.3-.6.2-1.3.1-2v-.8a13.8 13.8 0 014-9.2c0-.2.2-.3.3-.4.7-.7 1.3-1.3 1.3-2l-.2-1a2.9 2.9 0 01.5-3.1c.8-.9 2.2-1.3 3.3-1.6l1.9-.5c.5-.2 1.2-.4 1.2-.7 0-.2-.2-.4-.4-.6l-.2-.2c-.3-.4-.5-.7-.6-1.2-.1-.7 0-1.5.4-2a4 4 0 011.1-1c.4-.2.8-.5 1-.8.7-.7.8-1.8.9-2.8v-.9c.4-2.5 2-4 4.1-5.1 1.2-.6 2.4-1.1 3.7-1.2 1.8-.2 3.7.4 5.1 1.4 1 .7 1.8 1.7 2.5 2.7.7 1 1.5 2.2 1.5 3.3 0 1-.4 2-.9 3l-.2.4-1 2.2-.3 3v.4c0 1-.1 2.2-.7 2.9a4 4 0 01-.8.6c-.3.2-.6.3-.8.6-1 1-.6 2.4-.1 3.6l.2.7c1 3.3.3 6.6-.4 10-.3 1.4-.7 2.8-.8 4.2-.3 2.3-.2 4.6-.2 7v1.4a186 186 0 01.2 8.7l.1 1.8c0 1.8.2 3.5.1 5.2 0 2.4-.4 4.8-1 7.1l-.2.8c-.2.8-.5 1.6-.6 2.5v.3l-.4 1.5c-.3.3-.8.5-1.3.7l-1.2.6c-.5.4-1 .8-1 1 .1.2.7.2 1.3.2h.7c1 0 1.7.1 2.4.3.6.2 1 .3 1.6.3 1.7 0 4.2-1.8 5.6-2.7a78.6 78.6 0 0014.8-13.8 93.2 93.2 0 0018.6-38.6c.6-3 1.2-6.1 2.6-8.7a9.4 9.4 0 011.3-2l.5-.7c.2-.6-.3-1.2-.8-2a8 8 0 01-.5-.7c-1.1-1.8-.7-3.6-.2-5.5l.2-1.3.4-2.8c.2-1.6.4-3.1 1-4.6.4-1.4 1.3-2.7 2.3-3.8l1.4-1.2c1.1-1.1 2.3-2.2 2.8-3.8l.3-1c.2-.8.3-1.5.9-2 .3-.3.8-.5 1.3-.6l.7-.3c1-.4 1.8-1.1 2.5-1.8.9-.8 1.7-1.6 2.4-2.8.3-.5.5-1 .4-1.4-.1-.5-1-.6-1.7-.8l-.5-.1a10 10 0 01-2.3-.9c-.5-.2-1-.5-1.2-.9-.1-.4.2-1 .5-1.4.5-.8 1.2-1.2 1.8-1.6l.2-.2 2-1.4a49 49 0 015-3.5c2.2-1.1 4.2-2.3 5.3-4.3l.2-.3.5-.8.3-.3.5-.5c.3-.4.3-1 .3-1.6 0-2-.1-5-1.3-6.7-.5-.8-1.3-1.3-2.2-2l-1.5-1c-1.3-1.3-2.1-3-2.7-4.5-.5-1.3-.8-2.5-.9-4.3 0-1.5 0-3.4.3-3.5.3 0 .8.8 1.3 1.8l.8 1.4c1 1.8 2 2.7 3.4 3.5 1.6 1 3.5 1.9 5.5 2.5l.6.1c.7.2 1.5.4 2.1.8 1.3.7 2 2.1 2.9 3.5l.1.3 2 3.1c1.5 2.5 3 4.8 4 7.5l.7 1.5c.7 1.8 1.4 3.6 2.7 5 .5.6 1 1.1 1.7 1.6 1 1 2 1.8 2.7 3l.3 1c.4.8.8 1.7 1.7 2l.4.2c.3 0 .5.1.7.3.2.3-.2 1-.6 1.4-.8.7-1.7.5-2.6.4h-.8a8 8 0 00-4 1c-.9.3-1.7.8-2 1.4-.4.7-.2 1.6 0 2.5.2.5.3 1.2.3 1.7a6 6 0 01-.9 2.6l-.4.9a17.4 17.4 0 00-1.2 5l-.2 1.5c-.5 2.6-1 5.1-.3 8.2l.1.6c.3 1.3.6 2.5-.2 3.2-.2.3-.6.5-1 .7-.7.3-1.3.6-1.4 1.1 0 .3.1.6.3.8.2.5.7.9 1.1 1.3l4.3 3.1c1 .7 2.2 1.4 3.4 1.4.9 0 1.7-.4 2.4-.9.6-.4 1.2-1.9 1.7-3.1l.6-1.4c.8-1.4 1-3.1 1.3-4.7a8 8 0 01.6-2.8l1.5-6.4 1-4.1 1-3.8c.5-1.5 1-3 1.3-5l.3-1.6a110 110 0 01.8-4.7c.4-2.2.8-4.5.7-6.9v-1.2c-.1-1-.2-2.1 0-3 .3-1.3 1-2.3 2-3.6 0-.2.2-.3.3-.4l.1-.2c.7-1 1.4-2 1.9-2 .6 0 .7 1.4.9 3l.2 1.6c.2 1.6.7 2.8 1.1 3.8l.5 1.2a31 31 0 011.2 6l.6 3.8.1.6c.4 1.9.7 3.8-.2 4.8-.5.4-1.2.6-2 .9l-2 .7c-.5.4-1 1-1.4 1.6-1 1.5-1.3 3.2-1.6 5l-.1.6c-.9 4.1-2.1 8-3.3 12v.1c-.9 2.6-1.7 5.1-2 7.8a14.2 14.2 0 000 4.6c.1 1.6.3 3.3-.3 4.7-.4.8-1 1.6-1.6 2.3l-1.2 1.5c-.5.8-.9 1.7-1.3 2.7-1.3 3.6-2 7.3-2.8 11.2l-.5 2.4c-1 4.8-2.2 9.6-3.4 14.1l-.3 1.3c-.8 3.2-1.7 6.4-2.3 9.6-3 14.2-1.4 13.1 1.6 11 1.7-1.2 3.7-2.7 5.8-2.2.6.2 1.1.6 1.7 1zm-212.5-23l1.3 3.4 1.9-3.3c1.2-2.4 1-3.1-.8-5a7.4 7.4 0 00-2.1-1.8c-1-.4-2.2-.8-2.6-.4-.5.4 0 1.7.4 2.8l1.1 2.5.8 1.8zm15 1.9c.5.1.9.2 1.1.1.4-.2.5-1 .2-1.6-.3-1.3-1.5-2.4-2-2-.3.3-.4 1-.4 1.6.2.8.7 1.3 1.2 1.9zm-5.8.2c0 1 .5 1.8 1 2.4 1.1-.7 1.2-1 1.1-2.2 0-.7-.1-1.4-.6-1.9l-.7-.4c-.6 0-.8 1.2-.8 2.1zm-128.5 30c-.2.6-.3 1.2-.1 1.4.3.4 1.2 0 2-.3l.2-.1c1.2-.6 2-.8 2.9-1.1-.5-.6-1-1.1-1.6-1.4-.5-.3-1.2-.3-1.8-.1-.7.2-1.3.8-1.6 1.6zm58.7-6.9a7.2 7.2 0 01-.8 2c-.3.7-.6 1.2-.5 1.6.3.6 1.6.8 2.5.6.6-.1 1-.4 1.5-.7l.8-.5 1-.3c.8-.2 1.7-.5 2-1 .5-.7-.7-1.7-1.8-2.7-.4-.8-.7-1.6-1.3-1.8-.8-.3-2 .4-2.7 1.2-.4.5-.5 1-.7 1.6zm103.7-16c-1.4 3.3-2.4 7-3.4 10.6-.2 1.7-.4 3.4.6 3.6.4.1 1 0 1.5-.3.7-.4 1.2-1 1.7-1.5l.6-.6c1-1 2.3-1.7 3.7-2.4a8.8 8.8 0 013.7-1.2l1.7.3 1.5.2c.8.1 1.8 0 2.3-.4.5-.5.7-1.5.8-2.4v-.3a48 48 0 011.3-6.3l.6-2.3a94.3 94.3 0 001.6-11.8c-.5-1.2-2.6-.6-4.8 0l-1.4.4-2.4.5c-2.2.4-4 .7-5 2.2a10 10 0 00-1 2.5l-.2.6c-.6 2-1.4 3.9-2.2 5.7l-1.2 2.8zm-57.5 18.5c-1.1.6-2.3 2-2.1 2.7.2 1 2.2 1.1 3.8 1.1 2.2 0 3.7-.6 5.2-1.1-1-1-2-2-3.3-2.6-1-.5-2.3-.7-3.6 0zm83.4-67.2l.8 3.1c.3.9.6 1.7 1.2 2 .8.5 2.2-.2 3.4-.9a14 14 0 004.5-4.5c1-1.5 1.8-3.2 2.4-5 1-3 1.6-4.7 2-8l1-5.3-15.8 16.8.5 1.8zm125.6 44.5a54.3 54.3 0 00-2 22.8c4.7-5.4 5.2-8.8 6-15l.4-2.7c1-6 2.7-11.7 4.3-17l.3-.9a50.7 50.7 0 002.8-14.5c-.2-1.4-2.2 2.8-3.7 6a147.4 147.4 0 00-8.1 21.3zM633.2 185c1-1.8 1.8-3.6 2.6-5.8.4-1 .7-1.9.5-2.7-.2-.6-.7-1-1.2-1.5l-.4-.4c-.5-.6-1-1.2-1.3-1.8-.7-.9-1.3-1.8-2.4-2.7-.8-.6-2-1.3-2.4-1.2-.5.1.2 1.6.9 3.1l.5 1.1a23.6 23.6 0 012 6.7l1.2 5.2zm202.3-21c1 .1 1.9.2 2.2-.4l.1-.8v-.3l.1-.5c0-.6.1-1.2-.2-1.5-.3-.3-1-.3-1.5-.3h-.2c-1 0-1.8 0-2.7-.2h-.3c-.4-.2-.8-.3-1-.2-.6.2-.7 1-.8 1.8l-.5 2.3 2 .2h1.1a23.1 23.1 0 011.7 0zm58.4-6.2c2.6-.7 5.1-1.5 8.1-1.7h1.2c2.2-.2 4.3-.3 5.5-1.7.6-.6 1-1.5 1.2-2.4l1-4.4v-.6c.4-1.7.7-3.4.4-5l-.1-.7c-.1-.6-.3-1.2-.2-1.8l.2-.7c0-.6.2-1 0-1.4-.2-.7-1.3-1.1-2.2-1.1-.5 0-1 .2-1.5.4l-3 1.5c-.8.6-1.5 1.3-1.8 2.2l-.2 1.1c0 .4 0 .8-.2 1.2-.2.6-.6 1-1 1.5-.5.7-1 1.3-1.8 1.7-1 .6-2.2 1-3.4 1.1l-3.5.6h-.5c-1 .2-1.9.4-2.7.9a3 3 0 00-1.1 1.3c-.2.4-.2 1-.3 1.4l-.1 1-.2.6a3 3 0 00-.2 1.5c0 .3.2.7.5 1 .4.2 1 .1 1.6 0h.7l1.7-.4.6-.2c.8-.3 1.7-.6 2-.2.2.3 0 1 0 1.5l-.7 1.7zm-121.7 15.7l.2-.6c.3-.6.9-1 1.5-1.3a6 6 0 012-.8h1.8c.9.1 1.8.2 2.4-.2.8-.5 1.2-2 1.5-3.2.3-1.6.7-3 .8-4.6v-1.3l.4-3c.2-1 .5-1.8.8-2.6a13 13 0 001-3.5c.1-1 0-2.2-.2-3.2l-.1-.9a6 6 0 01.1-2.3v-.2c.1-.4.2-.8.1-.9 0 0-.4.1-.7.4a4.4 4.4 0 01-2.3.8l-.5.1-1.8.6-2 .5c-1 .3-2.2.2-3.3.1a42.8 42.8 0 00-5.1-.2 10.9 10.9 0 01-3.5-.7c-.7-.2-1.3-.5-1.8-.2-.4.2-.7.7-.8 1.2-.2.6-.2 1.2-.2 1.8v.5c.1 1.6-.3 3.2-.8 4.8l-.3 1a18.5 18.5 0 00.3 14.7c.5 1.2 1.2 2.4 1.9 3.5a45.6 45.6 0 015.5.5c1 .3 2.3.5 2.8-.1l.3-.7zm-17.1 2c.5-.1 1-.2 1.4-.5.6-.6.3-1.3 0-2h-.1c-.4-.5-.7-1.1-1-1.8l-.4-1.5-.4-1.3c-.2-.7-.6-1.4-1-2l-.7-1.3a18.2 18.2 0 01-1.3-7.4l.3-.7.3-.8c.1-.5 0-1-.2-1.6-.1-.4-.4-.7-.6-1l-.6-.8-.4-1.1c-.3-.7-.5-1.4-1.1-2-1.2-1-1.7 0-2.1 1l-.2.3c-.5 1-1 1.6-1.5 2.3l-2.3 2.6-2.2 1.8-.9.6a27 27 0 00-4.8 4.8c-2 2.7-2 4-1.5 7.3l.5 4c1.2.1 2.3.2 3.4.5.6 0 1.2.2 1.8.4l1.9.4c.9.2 1.8.3 2.6 0l.8-.7c.4-.4.8-.7 1.3-.8.5-.2 1.1.2 1.7.6l.8.5c1 .5 2 .6 2.9.5l2-.2 1.5-.2zm38.4-6h1.5a7.5 7.5 0 002-.7l3.3-1a81 81 0 001.7-.6l2-.6 3.7-1.2 4-.7 2.8-.5.7-.2c1-.2 2.1-.5 3.3-.4h1c.9.1 1.7.2 2.3 0 1-.6 1.3-2.4 1.5-4.1v-.7c.2-1.7.5-3 .8-4.5l.4-2.4a71.6 71.6 0 001-8.5c.2-2.2.5-4.5.9-6.4l.6-2.5.7-2.3c.2-.8.4-1.8 0-1.9l-1 .5c-.5.3-1.1.7-1.5.6-.4-.2-.5-1-.6-1.7-.4-2.8-.6-4.6-.7-6.7v-.8c-.1-2-.2-4-1.1-5.7-.5-.8-1.3-1.6-2-2.3-1-1-2-2-2.5-3.3-.2-.5-.2-1-.3-1.6-.1-.9-.3-1.7-.7-2.4-.4-.6-1-1-1.7-1.3-2.7-1.2-5.4.3-7 2.7-.7 1.2-1 2.7-1.4 4l-.2.8-1.2 4-.2.6c-.4 1.2-.8 2.5-.9 3.7v2.9c.2 1 .3 2 .2 3a17 17 0 01-1.4 4.6l-.4 1-1.3 4c-.2.8-.5 1.5-.2 2.1l.8.8h.2l1.3 1.2c.6.6 1.2 1.1 2 1.6l1 .5c1 .4 1.8.9 2 1.6.2.7-.1 1.6-.4 2.4a90.8 90.8 0 00-3.2 9.6 32.8 32.8 0 00-.8 5c0 .8-.1 1.7-.7 2.1-.3.3-.8.4-1.4.6l-.7.1-1.8.8-.8.4c-1 .6-2.2 1-3.4 1-.9 0-1.8-.2-2.7-.4-.5-.2-1-.3-1.3-.7-.4-.5 0-1.4.3-2.1.4-.8 1-1.2 1.5-1.7a8 8 0 001.3-1.3l.4-.6c.4-.7.8-1.3 1.4-1.4.4 0 .9.2 1.3.5l.5.6c.2.3.4.6.7.7.4 0 .9-.6 1.2-1.1.6-1 .8-2 1-2.8l.9-4.4c.1-.9.3-1.8-.1-2.4a2 2 0 00-1.1-.7c-.5-.2-1 0-1.6 0l-.9.2-1.8-.3-.8-.2c-2-.5-2.7.1-3.8 1.8a21 21 0 00-3 7.2l-.7 2.4-.7 1.7c-.4 1-.8 2.2-1 3.3-.3 1.8-.2 3.6 0 5.5a16 16 0 003.8-.7l1.7-.4h1.3z" fill="#374442"/></g><defs><clipPath id="clip0"><path fill="#fff" d="M0 0h1925v283H0z"/></clipPath></defs></svg>